<?xml version="1.0" encoding="UTF-8"?>
<svg width="140.28mm" height="161.98mm" version="1.1" viewBox="0 0 140.28 161.98" xml:space="preserve" xmlns="http://www.w3.org/2000/svg" xmlns:xlink="http://www.w3.org/1999/xlink"><defs><linearGradient id="linearGradient9" x1="37.171" x2="157.08" y1="102.79" y2="102.79" gradientUnits="userSpaceOnUse"><stop stop-color="#b400fe" stop-opacity=".99306" offset="0"/><stop stop-color="#3ad3d6" offset="1"/></linearGradient></defs><g transform="translate(-28.237 -30.854)"><path d="m168.1 152.1-69.724 40.255-69.724-40.255 1e-6 -80.511 69.724-40.255 69.724 40.255z" fill="none" stroke="#000" stroke-linecap="square" stroke-opacity=".87863" stroke-width=".834"/><path transform="matrix(.99808 0 0 .99808 -.99626 1.2708)" d="m166.66 149.34-66.957 38.657-66.957-38.657v-77.315l66.957-38.657 66.957 38.657z" stroke="#000" stroke-linecap="square" stroke-opacity=".87863" stroke-width=".834"/><g fill="none"><path d="m59.222 89.378c16.333 11.203 16.648 11.364 16.648 11.364l-16.432 10.491" stroke="#972bff" stroke-linejoin="round" stroke-opacity=".87863" stroke-width="5.0552"/><g stroke="#797979" stroke-dasharray="1.02501, 3.07503" stroke-opacity=".87863" stroke-width="1.025"><rect x="87.745" y="89.145" width="22.261" height="19.113" style="paint-order:normal"/><path d="m110.76 89.138 36.043-26.487" style="paint-order:normal"/><path d="m87.611 89.347-17.743-15.367-14.911-13.425" style="paint-order:normal"/><path d="m110.43 108 54.316 40.246" style="paint-order:normal"/><path d="m87.281 108.51-55.925 42.11" style="paint-order:normal"/></g><path d="m67.162 75.44h62.224c14.168 0 23.835 15.101 23.417 26.957-0.37123 10.536-9.3174 26.458-23.417 26.458 0 0 1.6547-0.22006-5.1154-0.279-6.4531-0.0562-19.691-11.073-26.145-11.044-6.3737 0.0287-16.991 7.1865-25.326 11.351-1.4549 0.72686-4.7118 1.2666-4.7118 1.2666-15.635-0.86223-26.958-15.593-26.646-27.994 0.30326-12.061 11.822-26.715 25.719-26.715z" stroke="url(#linearGradient9)" stroke-linejoin="round" stroke-width="8.5311"/></g><g stroke-width="1.5129"><path d="m75.194 144.49v-3.2023h6.4045v6.4045h-6.4045z" fill="#fff"/><path d="m117.22 147.9v-13.009h6.4045v6.4045h6.6235l6.1856 6.2221v13.392h-5.9844l-0.10999-6.5046-0.10998-6.5046-6.6047-0.23239v13.242h-6.4045z" fill="#8068d4"/><path d="m94.408 157.71v-3.2122h6.4045v-13.209h13.209v6.4045h-6.3847l-0.10999 6.5046-0.10998 6.5046-13.009 0.21998z" fill="#8068d4"/></g><g fill="#fff" stroke-width="1.5129"><path d="m84.801 151.1v-9.8069h12.809v6.4045h-6.4045v13.209h-6.4045z"/><path d="m75.11 157.6-0.11634-3.3023-6.6942-0.1076-6.315-6.278v-6.6235h6.4045v6.4046h6.6224l6.587 6.6214v6.588h-6.3721z"/><path d="m61.985 157.7v-3.2023h6.4045v6.4046h-6.4045z"/></g></g></svg>
