<svg xmlns="http://www.w3.org/2000/svg" width="7" height="7" viewBox="0 0 7 7"><path d="M0,1 1,1 1,2 0,2M0,2 1,2 1,3 0,3M0,3 1,3 1,4 0,4M0,4 1,4 1,5 0,5M0,5 1,5 1,6 0,6M0,6 1,6 1,7 0,7M1,6 2,6 2,7 1,7M2,6 3,6 3,7 2,7M3,6 4,6 4,7 3,7M4,6 5,6 5,7 4,7M5,6 6,6 6,7 5,7M6,6 7,6 7,7 6,7M6,5 7,5 7,6 6,6M6,4 7,4 7,5 6,5M6,3 7,3 7,4 6,4M6,2 7,2 7,3 6,3M6,1 7,1 7,2 6,2M6,0 7,0 7,1 6,1M5,0 6,0 6,1 5,1M4,0 5,0 5,1 4,1M3,0 4,0 4,1 3,1M2,0 3,0 3,1 2,1M1,0 2,0 2,1 1,1M0,0 1,0 1,1 0,1M2,2 3,2 3,3 2,3M2,3 3,3 3,4 2,4M2,4 3,4 3,5 2,5M4,4 5,4 5,5 4,5M4,2 5,2 5,3 4,3M5,2 6,2 6,3 5,3" fill="#000000"><animate attributeName="d" dur="2.7s" repeatCount="indefinite" calcMode="discrete" values="M0,1 1,1 1,2 0,2M0,2 1,2 1,3 0,3M0,3 1,3 1,4 0,4M0,4 1,4 1,5 0,5M0,5 1,5 1,6 0,6M0,6 1,6 1,7 0,7M1,6 2,6 2,7 1,7M2,6 3,6 3,7 2,7M3,6 4,6 4,7 3,7M4,6 5,6 5,7 4,7M5,6 6,6 6,7 5,7M6,6 7,6 7,7 6,7M6,5 7,5 7,6 6,6M6,4 7,4 7,5 6,5M6,3 7,3 7,4 6,4M6,2 7,2 7,3 6,3M6,1 7,1 7,2 6,2M6,0 7,0 7,1 6,1M5,0 6,0 6,1 5,1M4,0 5,0 5,1 4,1M3,0 4,0 4,1 3,1M2,0 3,0 3,1 2,1M1,0 2,0 2,1 1,1M0,0 1,0 1,1 0,1M2,2 3,2 3,3 2,3M2,3 3,3 3,4 2,4M2,4 3,4 3,5 2,5M4,4 5,4 5,5 4,5M4,2 5,2 5,3 4,3M5,2 6,2 6,3 5,3;M0,1 1,1 1,2 0,2M0,2 1,2 1,3 0,3M0,3 1,3 1,4 0,4M0,4 1,4 1,5 0,5M0,5 1,5 1,6 0,6M0,6 1,6 1,7 0,7M1,6 2,6 2,7 1,7M2,6 3,6 3,7 2,7M3,6 4,6 4,7 3,7M4,6 5,6 5,7 4,7M5,6 6,6 6,7 5,7M6,6 7,6 7,7 6,7M6,5 7,5 7,6 6,6M6,4 7,4 7,5 6,5M6,3 7,3 7,4 6,4M6,2 7,2 7,3 6,3M6,1 7,1 7,2 6,2M6,0 7,0 7,1 6,1M5,0 6,0 6,1 5,1M4,0 5,0 5,1 4,1M3,0 4,0 4,1 3,1M2,0 3,0 3,1 2,1M1,0 2,0 2,1 1,1M0,0 1,0 1,1 0,1M2,2 3,2 3,3 2,3M2,3 3,3 3,4 2,4M2,4 3,4 3,5 2,5M4,4 5,4 5,5 4,5M4,2 5,2 5,3 4,3M5,2 6,2 6,3 5,3;M0,1 1,1 1,2 0,2M0,2 1,2 1,3 0,3M0,3 1,3 1,4 0,4M0,4 1,4 1,5 0,5M0,5 1,5 1,6 0,6M0,6 1,6 1,7 0,7M1,6 2,6 2,7 1,7M2,6 3,6 3,7 2,7M3,6 4,6 4,7 3,7M4,6 5,6 5,7 4,7M5,6 6,6 6,7 5,7M6,6 7,6 7,7 6,7M6,5 7,5 7,6 6,6M6,4 7,4 7,5 6,5M6,3 7,3 7,4 6,4M6,2 7,2 7,3 6,3M6,0 7,0 7,1 6,1M5,0 6,0 6,1 5,1M4,0 5,0 5,1 4,1M3,0 4,0 4,1 3,1M2,0 3,0 3,1 2,1M1,0 2,0 2,1 1,1M0,0 1,0 1,1 0,1M2,2 3,2 3,3 2,3M2,3 3,3 3,4 2,4M2,4 3,4 3,5 2,5M4,4 5,4 5,5 4,5M4,2 5,2 5,3 4,3M5,2 6,2 6,3 5,3M6,1 7,1 7,2 6,2;"/></path><path d="M1,1 2,1 2,2 1,2M1,2 2,2 2,3 1,3M1,3 2,3 2,4 1,4M1,4 2,4 2,5 1,5M1,5 2,5 2,6 1,6M2,5 3,5 3,6 2,6M3,5 4,5 4,6 3,6M2,1 3,1 3,2 2,2M3,1 4,1 4,2 3,2M3,2 4,2 4,3 3,3M3,3 4,3 4,4 3,4M3,4 4,4 4,5 3,5" fill="#ffffff"><animate attributeName="d" dur="2.7s" repeatCount="indefinite" calcMode="discrete" values="M1,1 2,1 2,2 1,2M1,2 2,2 2,3 1,3M1,3 2,3 2,4 1,4M1,4 2,4 2,5 1,5M1,5 2,5 2,6 1,6M2,5 3,5 3,6 2,6M3,5 4,5 4,6 3,6M2,1 3,1 3,2 2,2M3,1 4,1 4,2 3,2M3,2 4,2 4,3 3,3M3,3 4,3 4,4 3,4M3,4 4,4 4,5 3,5;M1,1 2,1 2,2 1,2M1,2 2,2 2,3 1,3M1,3 2,3 2,4 1,4M1,4 2,4 2,5 1,5M1,5 2,5 2,6 1,6M2,5 3,5 3,6 2,6M3,5 4,5 4,6 3,6M2,1 3,1 3,2 2,2M3,1 4,1 4,2 3,2M3,2 4,2 4,3 3,3M3,3 4,3 4,4 3,4M3,4 4,4 4,5 3,5;M1,2 2,2 2,3 1,3M1,3 2,3 2,4 1,4M1,4 2,4 2,5 1,5M1,5 2,5 2,6 1,6M2,5 3,5 3,6 2,6M3,5 4,5 4,6 3,6M3,4 4,4 4,5 3,5M1,1 2,1 2,2 1,2M2,1 3,1 3,2 2,2;"/></path><path d="M4,1 5,1 5,2 4,2M5,1 6,1 6,2 5,2M4,3 5,3 5,4 4,4M5,3 6,3 6,4 5,4M5,4 6,4 6,5 5,5M5,5 6,5 6,6 5,6M4,5 5,5 5,6 4,6" fill="#8b82ff"><animate attributeName="d" dur="2.7s" repeatCount="indefinite" calcMode="discrete" values="M4,1 5,1 5,2 4,2M5,1 6,1 6,2 5,2M4,3 5,3 5,4 4,4M5,3 6,3 6,4 5,4M5,4 6,4 6,5 5,5M5,5 6,5 6,6 5,6M4,5 5,5 5,6 4,6;M4,1 5,1 5,2 4,2M5,1 6,1 6,2 5,2M4,3 5,3 5,4 4,4M5,3 6,3 6,4 5,4M5,4 6,4 6,5 5,5M5,5 6,5 6,6 5,6M4,5 5,5 5,6 4,6;M4,1 5,1 5,2 4,2M5,1 6,1 6,2 5,2M4,3 5,3 5,4 4,4M5,3 6,3 6,4 5,4M5,5 6,5 6,6 5,6M4,5 5,5 5,6 4,6M3,1 4,1 4,2 3,2M3,2 4,2 4,3 3,3M3,3 4,3 4,4 3,4M5,4 6,4 6,5 5,5;"/></path></svg>