<svg xmlns="http://www.w3.org/2000/svg" width="12" height="11" viewBox="0 0 12 11"><path d="M0,1 1,1 1,2 0,2M0,2 1,2 1,3 0,3M0,3 1,3 1,4 0,4M0,4 1,4 1,5 0,5M0,5 1,5 1,6 0,6M0,6 1,6 1,7 0,7M0,7 1,7 1,8 0,8M1,8 2,8 2,9 1,9M2,8 3,8 3,9 2,9M3,8 4,8 4,9 3,9M4,8 5,8 5,9 4,9M5,8 6,8 6,9 5,9M6,8 7,8 7,9 6,9M7,8 8,8 8,9 7,9M8,8 9,8 9,9 8,9M9,7 10,7 10,8 9,8M9,6 10,6 10,7 9,7M9,5 10,5 10,6 9,6M9,4 10,4 10,5 9,5M9,2 10,2 10,3 9,3M9,1 10,1 10,2 9,2M8,0 9,0 9,1 8,1M7,0 8,0 8,1 7,1M6,0 7,0 7,1 6,1M5,0 6,0 6,1 5,1M4,0 5,0 5,1 4,1M3,0 4,0 4,1 3,1M2,0 3,0 3,1 2,1M1,0 2,0 2,1 1,1M0,0 1,0 1,1 0,1M9,0 10,0 10,1 9,1M9,8 10,8 10,9 9,9M0,8 1,8 1,9 0,9M1,9 2,9 2,10 1,10M10,9 11,9 11,10 10,10M10,1 11,1 11,2 10,2M2,10 3,10 3,11 2,11M10,10 11,10 11,11 10,11M9,10 10,10 10,11 9,11M8,10 9,10 9,11 8,11M7,10 8,10 8,11 7,11M6,10 7,10 7,11 6,11M5,10 6,10 6,11 5,11M4,10 5,10 5,11 4,11M3,10 4,10 4,11 3,11M11,2 12,2 12,3 11,3M11,3 12,3 12,4 11,4M11,4 12,4 12,5 11,5M11,5 12,5 12,6 11,6M11,6 12,6 12,7 11,7M11,7 12,7 12,8 11,8M11,8 12,8 12,9 11,9M11,9 12,9 12,10 11,10M9,3 10,3 10,4 9,4" fill="#000000"><animate attributeName="d" dur="0.5s" repeatCount="indefinite" calcMode="discrete" values="M0,1 1,1 1,2 0,2M0,2 1,2 1,3 0,3M0,3 1,3 1,4 0,4M0,4 1,4 1,5 0,5M0,5 1,5 1,6 0,6M0,6 1,6 1,7 0,7M0,7 1,7 1,8 0,8M1,8 2,8 2,9 1,9M2,8 3,8 3,9 2,9M3,8 4,8 4,9 3,9M4,8 5,8 5,9 4,9M5,8 6,8 6,9 5,9M6,8 7,8 7,9 6,9M7,8 8,8 8,9 7,9M8,8 9,8 9,9 8,9M9,7 10,7 10,8 9,8M9,6 10,6 10,7 9,7M9,5 10,5 10,6 9,6M9,4 10,4 10,5 9,5M9,2 10,2 10,3 9,3M9,1 10,1 10,2 9,2M8,0 9,0 9,1 8,1M7,0 8,0 8,1 7,1M6,0 7,0 7,1 6,1M5,0 6,0 6,1 5,1M4,0 5,0 5,1 4,1M3,0 4,0 4,1 3,1M2,0 3,0 3,1 2,1M1,0 2,0 2,1 1,1M0,0 1,0 1,1 0,1M9,0 10,0 10,1 9,1M9,8 10,8 10,9 9,9M0,8 1,8 1,9 0,9M1,9 2,9 2,10 1,10M10,9 11,9 11,10 10,10M10,1 11,1 11,2 10,2M2,10 3,10 3,11 2,11M10,10 11,10 11,11 10,11M9,10 10,10 10,11 9,11M8,10 9,10 9,11 8,11M7,10 8,10 8,11 7,11M6,10 7,10 7,11 6,11M5,10 6,10 6,11 5,11M4,10 5,10 5,11 4,11M3,10 4,10 4,11 3,11M11,2 12,2 12,3 11,3M11,3 12,3 12,4 11,4M11,4 12,4 12,5 11,5M11,5 12,5 12,6 11,6M11,6 12,6 12,7 11,7M11,7 12,7 12,8 11,8M11,8 12,8 12,9 11,9M11,9 12,9 12,10 11,10M9,3 10,3 10,4 9,4;M0,1 1,1 1,2 0,2M0,2 1,2 1,3 0,3M0,3 1,3 1,4 0,4M0,4 1,4 1,5 0,5M0,5 1,5 1,6 0,6M0,6 1,6 1,7 0,7M0,7 1,7 1,8 0,8M1,8 2,8 2,9 1,9M2,8 3,8 3,9 2,9M3,8 4,8 4,9 3,9M4,8 5,8 5,9 4,9M5,8 6,8 6,9 5,9M6,8 7,8 7,9 6,9M7,8 8,8 8,9 7,9M8,8 9,8 9,9 8,9M9,7 10,7 10,8 9,8M9,6 10,6 10,7 9,7M9,5 10,5 10,6 9,6M9,4 10,4 10,5 9,5M9,2 10,2 10,3 9,3M9,1 10,1 10,2 9,2M8,0 9,0 9,1 8,1M7,0 8,0 8,1 7,1M6,0 7,0 7,1 6,1M5,0 6,0 6,1 5,1M4,0 5,0 5,1 4,1M3,0 4,0 4,1 3,1M2,0 3,0 3,1 2,1M1,0 2,0 2,1 1,1M0,0 1,0 1,1 0,1M9,0 10,0 10,1 9,1M9,8 10,8 10,9 9,9M0,8 1,8 1,9 0,9M1,9 2,9 2,10 1,10M10,9 11,9 11,10 10,10M10,1 11,1 11,2 10,2M2,10 3,10 3,11 2,11M10,10 11,10 11,11 10,11M9,10 10,10 10,11 9,11M8,10 9,10 9,11 8,11M7,10 8,10 8,11 7,11M6,10 7,10 7,11 6,11M5,10 6,10 6,11 5,11M4,10 5,10 5,11 4,11M3,10 4,10 4,11 3,11M11,2 12,2 12,3 11,3M11,3 12,3 12,4 11,4M11,4 12,4 12,5 11,5M11,5 12,5 12,6 11,6M11,6 12,6 12,7 11,7M11,7 12,7 12,8 11,8M11,8 12,8 12,9 11,9M11,9 12,9 12,10 11,10M9,3 10,3 10,4 9,4;"/></path><path d="M2,2 3,2 3,3 2,3M3,3 4,3 4,4 3,4M4,4 5,4 5,5 4,5M3,5 4,5 4,6 3,6M2,6 3,6 3,7 2,7" fill="#ffffff"><animate attributeName="d" dur="0.5s" repeatCount="indefinite" calcMode="discrete" values="M2,2 3,2 3,3 2,3M3,3 4,3 4,4 3,4M4,4 5,4 5,5 4,5M3,5 4,5 4,6 3,6M2,6 3,6 3,7 2,7;M2,2 3,2 3,3 2,3M3,3 4,3 4,4 3,4M4,4 5,4 5,5 4,5M3,5 4,5 4,6 3,6M2,6 3,6 3,7 2,7;"/></path><path d="M2,1 3,1 3,2 2,2M3,1 4,1 4,2 3,2M4,1 5,1 5,2 4,2M5,1 6,1 6,2 5,2M7,1 8,1 8,2 7,2M8,4 9,4 9,5 8,5M8,5 9,5 9,6 8,6M1,6 2,6 2,7 1,7M1,5 2,5 2,6 1,6M1,4 2,4 2,5 1,5M1,2 2,2 2,3 1,3M2,4 3,4 3,5 2,5M2,5 3,5 3,6 2,6M3,6 4,6 4,7 3,7M7,5 8,5 8,6 7,6M7,4 8,4 8,5 7,5M5,4 6,4 6,5 5,5M3,2 4,2 4,3 3,3M4,2 5,2 5,3 4,3M5,2 6,2 6,3 5,3M5,6 6,6 6,7 5,7M2,7 3,7 3,8 2,8M3,7 4,7 4,8 3,8M5,7 6,7 6,8 5,8M8,6 9,6 9,7 8,7M7,7 8,7 8,8 7,8M7,6 8,6 8,7 7,7M5,5 6,5 6,6 5,6M3,4 4,4 4,5 3,5M6,7 7,7 7,8 6,8M6,6 7,6 7,7 6,7M6,5 7,5 7,6 6,6M6,4 7,4 7,5 6,5M8,1 9,1 9,2 8,2M2,3 3,3 3,4 2,4M1,3 2,3 2,4 1,4M1,7 2,7 2,8 1,8M6,1 7,1 7,2 6,2M6,2 7,2 7,3 6,3M7,2 8,2 8,3 7,3M8,2 9,2 9,3 8,3M8,7 9,7 9,8 8,8" fill="#3f313a"><animate attributeName="d" dur="0.5s" repeatCount="indefinite" calcMode="discrete" values="M2,1 3,1 3,2 2,2M3,1 4,1 4,2 3,2M4,1 5,1 5,2 4,2M5,1 6,1 6,2 5,2M7,1 8,1 8,2 7,2M8,4 9,4 9,5 8,5M8,5 9,5 9,6 8,6M1,6 2,6 2,7 1,7M1,5 2,5 2,6 1,6M1,4 2,4 2,5 1,5M1,2 2,2 2,3 1,3M2,4 3,4 3,5 2,5M2,5 3,5 3,6 2,6M3,6 4,6 4,7 3,7M7,5 8,5 8,6 7,6M7,4 8,4 8,5 7,5M5,4 6,4 6,5 5,5M3,2 4,2 4,3 3,3M4,2 5,2 5,3 4,3M5,2 6,2 6,3 5,3M5,6 6,6 6,7 5,7M2,7 3,7 3,8 2,8M3,7 4,7 4,8 3,8M5,7 6,7 6,8 5,8M8,6 9,6 9,7 8,7M7,7 8,7 8,8 7,8M7,6 8,6 8,7 7,7M5,5 6,5 6,6 5,6M3,4 4,4 4,5 3,5M6,7 7,7 7,8 6,8M6,6 7,6 7,7 6,7M6,5 7,5 7,6 6,6M6,4 7,4 7,5 6,5M8,1 9,1 9,2 8,2M2,3 3,3 3,4 2,4M1,3 2,3 2,4 1,4M1,7 2,7 2,8 1,8M6,1 7,1 7,2 6,2M6,2 7,2 7,3 6,3M7,2 8,2 8,3 7,3M8,2 9,2 9,3 8,3M8,7 9,7 9,8 8,8;M2,1 3,1 3,2 2,2M3,1 4,1 4,2 3,2M4,1 5,1 5,2 4,2M5,1 6,1 6,2 5,2M7,1 8,1 8,2 7,2M8,4 9,4 9,5 8,5M8,5 9,5 9,6 8,6M1,6 2,6 2,7 1,7M1,5 2,5 2,6 1,6M1,4 2,4 2,5 1,5M1,2 2,2 2,3 1,3M2,4 3,4 3,5 2,5M2,5 3,5 3,6 2,6M3,6 4,6 4,7 3,7M7,5 8,5 8,6 7,6M7,4 8,4 8,5 7,5M5,4 6,4 6,5 5,5M3,2 4,2 4,3 3,3M4,2 5,2 5,3 4,3M5,2 6,2 6,3 5,3M5,6 6,6 6,7 5,7M2,7 3,7 3,8 2,8M3,7 4,7 4,8 3,8M5,7 6,7 6,8 5,8M8,6 9,6 9,7 8,7M7,7 8,7 8,8 7,8M5,5 6,5 6,6 5,6M3,4 4,4 4,5 3,5M6,7 7,7 7,8 6,8M6,5 7,5 7,6 6,6M6,4 7,4 7,5 6,5M8,1 9,1 9,2 8,2M2,3 3,3 3,4 2,4M1,3 2,3 2,4 1,4M1,7 2,7 2,8 1,8M6,1 7,1 7,2 6,2M6,2 7,2 7,3 6,3M7,2 8,2 8,3 7,3M8,2 9,2 9,3 8,3M8,7 9,7 9,8 8,8;"/></path><path d="M2,9 3,9 3,10 2,10M3,9 4,9 4,10 3,10M4,9 5,9 5,10 4,10M5,9 6,9 6,10 5,10M6,9 7,9 7,10 6,10M7,9 8,9 8,10 7,10M8,9 9,9 9,10 8,10M9,9 10,9 10,10 9,10M10,2 11,2 11,3 10,3M10,3 11,3 11,4 10,4M10,4 11,4 11,5 10,5M10,5 11,5 11,6 10,6M10,6 11,6 11,7 10,7M10,7 11,7 11,8 10,8M10,8 11,8 11,9 10,9" fill="#30272d"><animate attributeName="d" dur="0.5s" repeatCount="indefinite" calcMode="discrete" values="M2,9 3,9 3,10 2,10M3,9 4,9 4,10 3,10M4,9 5,9 5,10 4,10M5,9 6,9 6,10 5,10M6,9 7,9 7,10 6,10M7,9 8,9 8,10 7,10M8,9 9,9 9,10 8,10M9,9 10,9 10,10 9,10M10,2 11,2 11,3 10,3M10,3 11,3 11,4 10,4M10,4 11,4 11,5 10,5M10,5 11,5 11,6 10,6M10,6 11,6 11,7 10,7M10,7 11,7 11,8 10,8M10,8 11,8 11,9 10,9;M2,9 3,9 3,10 2,10M3,9 4,9 4,10 3,10M4,9 5,9 5,10 4,10M5,9 6,9 6,10 5,10M6,9 7,9 7,10 6,10M7,9 8,9 8,10 7,10M8,9 9,9 9,10 8,10M9,9 10,9 10,10 9,10M10,2 11,2 11,3 10,3M10,3 11,3 11,4 10,4M10,4 11,4 11,5 10,5M10,5 11,5 11,6 10,6M10,6 11,6 11,7 10,7M10,7 11,7 11,8 10,8M10,8 11,8 11,9 10,9;"/></path><path d="M1,1 2,1 2,2 1,2M4,3 5,3 5,4 4,4M5,3 6,3 6,4 5,4M6,3 7,3 7,4 6,4M7,3 8,3 8,4 7,4M8,3 9,3 9,4 8,4M4,7 5,7 5,8 4,8M4,6 5,6 5,7 4,7M4,5 5,5 5,6 4,6" fill="#2b2128"><animate attributeName="d" dur="0.5s" repeatCount="indefinite" calcMode="discrete" values="M1,1 2,1 2,2 1,2M4,3 5,3 5,4 4,4M5,3 6,3 6,4 5,4M6,3 7,3 7,4 6,4M7,3 8,3 8,4 7,4M8,3 9,3 9,4 8,4M4,7 5,7 5,8 4,8M4,6 5,6 5,7 4,7M4,5 5,5 5,6 4,6;M1,1 2,1 2,2 1,2M4,3 5,3 5,4 4,4M5,3 6,3 6,4 5,4M6,3 7,3 7,4 6,4M7,3 8,3 8,4 7,4M8,3 9,3 9,4 8,4M4,7 5,7 5,8 4,8M4,6 5,6 5,7 4,7M4,5 5,5 5,6 4,6;"/></path><path d="M" fill="#af00fb"><animate attributeName="d" dur="0.5s" repeatCount="indefinite" calcMode="discrete" values="M;M6,6 7,6 7,7 6,7;"/></path><path d="M" fill="#8b82ff"><animate attributeName="d" dur="0.5s" repeatCount="indefinite" calcMode="discrete" values="M;M7,6 8,6 8,7 7,7;"/></path></svg>